<svg width="63" height="71" viewBox="0 0 63 71" fill="none" xmlns="http://www.w3.org/2000/svg">
<path d="M8.46625 71V55.2554H26.9321C30.6901 55.2554 33.8163 54.6399 36.3108 53.4088C38.8054 52.1778 40.7005 50.153 41.9964 47.3345C43.2922 44.516 43.9402 40.6771 43.9402 35.8176C43.9402 30.9582 43.276 27.103 41.9478 24.2522C40.6196 21.4013 38.692 19.3765 36.1651 18.1779C33.6382 16.9468 30.4147 16.3475 26.4948 16.3799H8.17468V0.635287H27.3695C34.5614 0.635287 40.8139 2.02833 46.1269 4.81441C51.4399 7.60049 55.5056 11.65 58.3241 16.963C61.175 22.276 62.6004 28.5609 62.6004 35.8176C62.6004 43.0744 61.175 49.3431 58.3241 54.6237C55.5056 59.9043 51.4561 63.9538 46.1755 66.7723C40.9273 69.5908 34.7396 71 27.6124 71H8.46625ZM19.3514 71H0.885517V0.635287H19.3514V71Z" fill="#2192FF"/>
</svg>
