<svg width="621" viewBox="0 0 621 358" fill="none" xmlns="http://www.w3.org/2000/svg">
<rect width="621" height="358" rx="20" fill="#F5F5F5"/>
<rect x="53" y="33" width="152" height="152" rx="20" fill="#EDEDED"/>
<rect x="43" y="209" width="177" height="24" rx="5" fill="#EDEDED"/>
<rect x="43" y="245" width="81" height="80" rx="20" fill="#EDEDED"/>
<rect x="134" y="245" width="81" height="80" rx="20" fill="#EDEDED"/>
<rect x="225" y="245" width="79" height="80" rx="20" fill="#EDEDED"/>
<rect x="314" y="245" width="81" height="80" rx="20" fill="#EDEDED"/>
<rect x="405" y="245" width="81" height="80" rx="20" fill="#EDEDED"/>
<rect x="496" y="245" width="81" height="80" rx="20" fill="#EDEDED"/>
<rect x="218" y="41" width="152" height="28" rx="5" fill="#EDEDED"/>
<rect x="218" y="77" width="227" height="28" rx="5" fill="#EDEDED"/>
<rect x="218" y="113" width="119" height="28" rx="5" fill="#EDEDED"/>
<rect x="218" y="149" width="349" height="28" rx="5" fill="#EDEDED"/>
</svg>
