<svg width="491" height="94" viewBox="0 0 491 94" fill="none" xmlns="http://www.w3.org/2000/svg">
<g filter="url(#filter0_d_147_1013)">
<path d="M8.31402 26.9056C17.5354 20.8736 28.0308 17.9182 39.8002 18.0396C48.6403 17.9529 55.591 20.6742 60.6524 26.2036C65.7138 31.733 67.0918 40.6164 64.7864 52.8538C62.7411 60.9659 58.633 67.8906 52.4623 73.628C46.309 79.348 38.1622 82.7714 28.0222 83.898C17.8994 85.042 10.5587 85.0334 6 83.872C7.50801 74.8933 10.5067 59.8652 14.9961 38.7877L6.85801 42.3757C6.68467 39.741 7.17001 34.5843 8.31402 26.9056ZM26.3581 66.0879C32.3729 65.9319 37.2609 64.5712 41.0223 62.0059C44.7489 59.3885 46.8376 55.4192 47.2883 50.0978C48.0856 39.1257 42.9896 34.541 32.0002 36.3437C30.3882 45.5824 28.5075 55.4972 26.3581 66.0879Z" fill="#FDFDFD"/>
<path d="M97.2607 36.2657L95.2846 45.7298L112.783 45.1838L110.287 58.7039C106.664 59.0159 100.675 59.3019 92.3206 59.5619L90.5526 67.9859C99.2367 68.0206 107.687 68.0032 115.903 67.9339C115.071 75.734 114.187 81.4453 113.251 85.068C105.277 85.536 89.9633 85.6834 67.3084 85.51C70.8618 68.2112 74.3372 52.4205 77.7345 38.1377L70.9745 38.7877L73.5485 22.6156C95.5966 17.8316 114.906 15.8989 131.477 16.8176C131.789 18.6722 128.886 24.9209 122.767 35.5637C110.963 35.477 102.461 35.711 97.2607 36.2657Z" fill="#FDFDFD"/>
<path d="M141.612 41.2317C141.612 36.8205 145.188 33.2445 149.599 33.2445H152.261C156.673 33.2445 160.249 36.8205 160.249 41.2317V43.8941C160.249 48.3054 156.673 51.8814 152.261 51.8814H142.943C142.208 51.8814 141.612 51.2854 141.612 50.5502V41.2317Z" fill="#FDFDFD"/>
<path d="M141.612 70.5183C141.612 66.1071 145.188 62.5311 149.599 62.5311H152.261C156.673 62.5311 160.249 66.1071 160.249 70.5183V73.1808C160.249 77.592 156.673 81.168 152.261 81.168H142.943C142.208 81.168 141.612 80.572 141.612 79.8368V70.5183Z" fill="#FDFDFD"/>
<path d="M188.771 44.9238C190.4 36.829 191.38 31.2997 191.709 28.3356C200.341 22.1129 210.507 18.7416 222.207 18.2216C236.837 18.0136 244.966 22.8496 246.595 32.7297C247.895 39.5764 244.394 45.8771 236.091 51.6318C242.591 55.6358 245.278 60.2292 244.151 65.4119C243.042 70.5773 240.754 74.3646 237.287 76.774C235.433 78.23 233.509 79.3827 231.515 80.232C222.71 84.0627 213.636 85.9 204.293 85.744C201.19 85.7614 195.886 85.5534 188.381 85.12C189.82 75.552 192.87 61.2172 197.533 42.1157L188.771 44.9238ZM212.093 45.4958C221.089 46.0678 225.865 44.1437 226.419 39.7237C226.87 38.129 226.142 36.8117 224.235 35.7717C222.346 34.7317 218.957 35.0697 214.069 36.7857C213.081 39.5244 212.422 42.4277 212.093 45.4958ZM207.543 70.6899C218.307 71.8513 224.192 69.5199 225.197 63.6959C225.509 61.2519 224.166 59.7352 221.167 59.1459C218.064 58.4352 214.156 58.8339 209.441 60.3419C208.557 64.1032 207.924 67.5526 207.543 70.6899Z" fill="#FDFDFD"/>
<path d="M307.774 24.4356C311.656 28.2143 313.892 33.397 314.482 39.9837C314.69 44.0051 314.317 48.0004 313.364 51.9698C306.257 75.4393 291.784 86.8707 269.943 86.264C260.947 86.2294 254.378 82.4074 250.235 74.798C248.415 70.2913 247.817 65.3599 248.441 60.0039C249.169 54.1972 251.111 48.2691 254.265 42.2197C258.044 35.6504 262.325 30.5717 267.109 26.9836C282.138 15.5089 295.692 14.6595 307.774 24.4356ZM269.111 57.8198C269.649 62.4479 272.44 64.8139 277.484 64.9179C281.765 65.1606 285.561 63.7826 288.872 60.7839C292.65 56.9012 294.15 52.9925 293.37 49.0578C292.243 44.1177 289.435 41.6997 284.946 41.8037C279.52 42.2544 275.048 45.0364 271.53 50.1498C269.831 52.8365 269.025 55.3932 269.111 57.8198Z" fill="#FDFDFD"/>
<path d="M374.282 24.4356C378.165 28.2143 380.401 33.397 380.99 39.9837C381.198 44.0051 380.826 48.0004 379.872 51.9698C372.766 75.4393 358.292 86.8707 336.452 86.264C327.456 86.2294 320.887 82.4074 316.744 74.798C314.924 70.2913 314.326 65.3599 314.95 60.0039C315.678 54.1972 317.619 48.2691 320.774 42.2197C324.553 35.6504 328.834 30.5717 333.618 26.9836C348.646 15.5089 362.201 14.6595 374.282 24.4356ZM335.62 57.8198C336.157 62.4479 338.948 64.8139 343.992 64.9179C348.273 65.1606 352.069 63.7826 355.38 60.7839C359.159 56.9012 360.658 52.9925 359.878 49.0578C358.751 44.1177 355.943 41.6997 351.454 41.8037C346.029 42.2544 341.557 45.0364 338.038 50.1498C336.339 52.8365 335.533 55.3932 335.62 57.8198Z" fill="#FDFDFD"/>
<path d="M379.196 84.6C381.623 79.712 384.18 74.0613 386.866 67.6479C390.42 70.3519 396.287 70.7853 404.468 68.9479C408.802 67.6132 410.925 65.5766 410.839 62.8379C410.856 60.6019 408.628 59.9865 404.156 60.9919C397.639 61.3385 392.812 60.0299 389.674 57.0658C386.554 54.1018 384.916 51.1811 384.76 48.3038C383.98 39.9491 386.424 32.565 392.092 26.1516C402.77 15.6302 416.099 13.1169 432.081 18.6116L423.241 35.4857C411.367 33.475 405.24 35.0263 404.858 40.1397C404.91 42.6011 406.47 43.7277 409.538 43.5197C412.607 43.2944 416.177 43.5891 420.251 44.4037C424.341 45.2011 427.158 47.0298 428.701 49.8898C430.642 55.2805 430.885 60.2032 429.429 64.6579C425.407 75.8726 416.784 83.0834 403.558 86.29C394.042 88.2141 385.922 87.6507 379.196 84.6Z" fill="#FDFDFD"/>
<path d="M485.584 17.6467C484.041 25.7934 481.892 32.9781 479.136 39.2008C475.184 38.7675 469.394 38.6462 461.768 38.8368L451.888 88.1072C449.634 89.0085 443.117 87.7518 432.335 84.3371L442.632 38.8628C444.368 31.2187 445.557 26.2302 447.031 19.9035C466.479 18.3955 466.777 17.4733 485.584 17.6467Z" fill="#FDFDFD"/>
<path d="M450.624 6H469.261L462.214 30.2099L443.796 34.5756C443.796 34.5756 447.124 18.1459 448.456 13.3814C449.787 8.617 450.624 6 450.624 6Z" fill="#FDFDFD"/>
</g>
<defs>
<filter id="filter0_d_147_1013" x="0.675162" y="0.675162" width="490.234" height="93.0391" filterUnits="userSpaceOnUse" color-interpolation-filters="sRGB">
<feFlood flood-opacity="0" result="BackgroundImageFix"/>
<feColorMatrix in="SourceAlpha" type="matrix" values="0 0 0 0 0 0 0 0 0 0 0 0 0 0 0 0 0 0 127 0" result="hardAlpha"/>
<feOffset/>
<feGaussianBlur stdDeviation="2.66242"/>
<feComposite in2="hardAlpha" operator="out"/>
<feColorMatrix type="matrix" values="0 0 0 0 0 0 0 0 0 0 0 0 0 0 0 0 0 0 0.1 0"/>
<feBlend mode="normal" in2="BackgroundImageFix" result="effect1_dropShadow_147_1013"/>
<feBlend mode="normal" in="SourceGraphic" in2="effect1_dropShadow_147_1013" result="shape"/>
</filter>
</defs>
</svg>
