<svg width="103" height="21" viewBox="0 0 103 21" fill="none" xmlns="http://www.w3.org/2000/svg">
<g filter="url(#filter0_d_22_1156)">
<path d="M2.47747 6.3136C4.38018 5.06897 6.54577 4.45917 8.97424 4.48421C10.7983 4.46632 12.2325 5.02784 13.2768 6.16875C14.3212 7.30967 14.6055 9.14264 14.1298 11.6677C13.7078 13.3415 12.8601 14.7703 11.5869 15.9541C10.3172 17.1344 8.63626 17.8408 6.54398 18.0732C4.45529 18.3093 2.94063 18.3075 2 18.0679C2.31116 16.2152 2.9299 13.1144 3.85622 8.76532L2.17704 9.50566C2.14127 8.96202 2.24142 7.89801 2.47747 6.3136ZM6.20064 14.3984C7.44169 14.3662 8.45028 14.0854 9.22638 13.5561C9.99534 13.016 10.4263 12.197 10.5193 11.099C10.6838 8.83506 9.63232 7.88906 7.3648 8.26102C7.03218 10.1673 6.64413 12.2131 6.20064 14.3984Z" fill="#2192FF"/>
<path d="M20.8304 8.24493L20.4227 10.1977L24.0332 10.0851L23.5182 12.8748C22.7707 12.9391 21.535 12.9981 19.8111 13.0518L19.4463 14.79C21.2382 14.7971 22.9817 14.7936 24.677 14.7793C24.5053 16.3887 24.3229 17.5672 24.1298 18.3147C22.4846 18.4112 19.3247 18.4416 14.6502 18.4059C15.3834 14.8365 16.1005 11.5783 16.8015 8.6312L15.4066 8.76532L15.9377 5.42841C20.4871 4.44129 24.4714 4.0425 27.8905 4.23206C27.9549 4.61475 27.3558 5.90409 26.0933 8.10008C23.6577 8.0822 21.9034 8.13048 20.8304 8.24493Z" fill="#2192FF"/>
<path d="M29.9817 9.26961C29.9817 8.3594 30.7196 7.62154 31.6298 7.62154H32.1791C33.0893 7.62154 33.8272 8.3594 33.8272 9.26961V9.81896C33.8272 10.7292 33.0893 11.467 32.1791 11.467H30.2564C30.1047 11.467 29.9817 11.3441 29.9817 11.1924V9.26961Z" fill="#2192FF"/>
<path d="M29.9817 15.3125C29.9817 14.4023 30.7196 13.6644 31.6298 13.6644H32.1791C33.0893 13.6644 33.8272 14.4023 33.8272 15.3125V15.8619C33.8272 16.7721 33.0893 17.5099 32.1791 17.5099H30.2564C30.1047 17.5099 29.9817 17.387 29.9817 17.2353V15.3125Z" fill="#2192FF"/>
<path d="M39.7124 10.0314C40.0486 8.36117 40.2507 7.22025 40.3186 6.60867C42.0997 5.32469 44.1974 4.62906 46.6115 4.52176C49.6301 4.47884 51.3075 5.47669 51.6437 7.51532C51.9119 8.92805 51.1895 10.2281 49.4763 11.4155C50.8175 12.2417 51.3719 13.1895 51.1394 14.2589C50.9105 15.3247 50.4384 16.1061 49.7231 16.6033C49.3404 16.9037 48.9434 17.1416 48.5321 17.3168C46.7152 18.1072 44.8429 18.4863 42.9152 18.4541C42.275 18.4577 41.1805 18.4148 39.6319 18.3254C39.9288 16.3511 40.5582 13.3933 41.5203 9.45201L39.7124 10.0314ZM44.5246 10.1494C46.3808 10.2675 47.3662 9.87046 47.4806 8.95845C47.5736 8.62941 47.4234 8.35759 47.03 8.143C46.6401 7.92841 45.9409 7.99815 44.9323 8.35223C44.7285 8.91732 44.5926 9.51639 44.5246 10.1494ZM43.5858 15.3479C45.8068 15.5876 47.021 15.1065 47.2285 13.9048C47.2928 13.4005 47.0157 13.0876 46.3969 12.966C45.7567 12.8193 44.9502 12.9016 43.9774 13.2127C43.795 13.9888 43.6645 14.7006 43.5858 15.3479Z" fill="#2192FF"/>
<path d="M64.2671 5.80395C65.0682 6.58363 65.5296 7.65301 65.6512 9.0121C65.6941 9.84185 65.6172 10.6662 65.4205 11.4853C63.9541 16.3279 60.9677 18.6866 56.4613 18.5614C54.6051 18.5543 53.2496 17.7657 52.3948 16.1956C52.0192 15.2657 51.8958 14.2481 52.0246 13.143C52.1748 11.9449 52.5754 10.7217 53.2263 9.47347C54.006 8.11796 54.8894 7.07004 55.8765 6.3297C58.9774 3.96203 61.7742 3.78678 64.2671 5.80395ZM56.2896 12.6923C56.4005 13.6473 56.9763 14.1355 58.0171 14.1569C58.9005 14.207 59.6837 13.9227 60.3669 13.3039C61.1465 12.5028 61.4559 11.6963 61.295 10.8844C61.0625 9.8651 60.4831 9.36617 59.5568 9.38763C58.4373 9.48062 57.5146 10.0547 56.7885 11.1097C56.438 11.6641 56.2717 12.1916 56.2896 12.6923Z" fill="#2192FF"/>
<path d="M77.9902 5.80395C78.7914 6.58363 79.2527 7.65301 79.3743 9.0121C79.4173 9.84185 79.3404 10.6662 79.1437 11.4853C77.6773 16.3279 74.6909 18.6866 70.1844 18.5614C68.3282 18.5543 66.9727 17.7657 66.1179 16.1956C65.7424 15.2657 65.619 14.2481 65.7477 13.143C65.898 11.9449 66.2985 10.7217 66.9495 9.47347C67.7291 8.11796 68.6125 7.07004 69.5997 6.3297C72.7005 3.96203 75.4974 3.78678 77.9902 5.80395ZM70.0128 12.6923C70.1236 13.6473 70.6995 14.1355 71.7402 14.1569C72.6236 14.207 73.4069 13.9227 74.09 13.3039C74.8697 12.5028 75.1791 11.6963 75.0181 10.8844C74.7856 9.8651 74.2062 9.36617 73.2799 9.38763C72.1605 9.48062 71.2377 10.0547 70.5117 11.1097C70.1612 11.6641 69.9949 12.1916 70.0128 12.6923Z" fill="#2192FF"/>
<path d="M79.0042 18.2181C79.5049 17.2095 80.0324 16.0436 80.5868 14.7202C81.32 15.2782 82.5306 15.3676 84.2188 14.9885C85.1129 14.7131 85.551 14.2928 85.5331 13.7278C85.5367 13.2664 85.0771 13.1394 84.1544 13.3469C82.8096 13.4184 81.8135 13.1484 81.1662 12.5368C80.5224 11.9252 80.1844 11.3225 80.1522 10.7288C79.9913 9.00494 80.4956 7.48134 81.6651 6.15802C83.8682 3.98707 86.6186 3.46847 89.9162 4.60223L88.0921 8.08399C85.6422 7.66911 84.3779 7.98921 84.2992 9.04428C84.31 9.55215 84.6318 9.78463 85.2649 9.74171C85.8979 9.69521 86.6347 9.75601 87.4752 9.92411C88.3192 10.0886 88.9004 10.466 89.2187 11.0561C89.6193 12.1684 89.6694 13.1841 89.369 14.1033C88.5392 16.4173 86.7599 17.9051 84.031 18.5668C82.0675 18.9638 80.3919 18.8476 79.0042 18.2181Z" fill="#2192FF"/>
<path d="M100.956 4.40314C100.638 6.08411 100.194 7.56658 99.6254 8.85056C98.8099 8.76114 97.6154 8.73611 96.0417 8.77545L94.0031 18.9417C93.5381 19.1277 92.1933 18.8684 89.9687 18.1638L92.0932 8.78082C92.4516 7.20356 92.6969 6.17423 93.0009 4.8688C97.0138 4.55764 97.0753 4.36737 100.956 4.40314Z" fill="#2192FF"/>
<path d="M93.7423 2H97.5878L96.1338 6.9954L92.3335 7.89621C92.3335 7.89621 93.0202 4.50614 93.2949 3.52306C93.5697 2.53998 93.7423 2 93.7423 2Z" fill="#2192FF"/>
</g>
<defs>
<filter id="filter0_d_22_1156" x="0.901289" y="0.901289" width="101.153" height="19.1974" filterUnits="userSpaceOnUse" color-interpolation-filters="sRGB">
<feFlood flood-opacity="0" result="BackgroundImageFix"/>
<feColorMatrix in="SourceAlpha" type="matrix" values="0 0 0 0 0 0 0 0 0 0 0 0 0 0 0 0 0 0 127 0" result="hardAlpha"/>
<feOffset/>
<feGaussianBlur stdDeviation="0.549355"/>
<feComposite in2="hardAlpha" operator="out"/>
<feColorMatrix type="matrix" values="0 0 0 0 0 0 0 0 0 0 0 0 0 0 0 0 0 0 0.1 0"/>
<feBlend mode="normal" in2="BackgroundImageFix" result="effect1_dropShadow_22_1156"/>
<feBlend mode="normal" in="SourceGraphic" in2="effect1_dropShadow_22_1156" result="shape"/>
</filter>
</defs>
</svg>
